# xmcd
#
# Track frame offsets:
#	150
#	9872
#	24110
#	38170
#	56405
#	72358
#	89963
#	108427
#	127974
#	138192
#	153207
#	169928
#
# Disc length: 2592 seconds
# Revision: 4
# Processed by: cddbd v1.5.2PL0 Copyright (c) Steve Scherf et al.
# Submitted via: dBpowerAMP V12.0
#
DISCID=910a1e0c
DTITLE=Bobby Bare Jr's Young Criminals' Starvation League - From the End of Your Leash
DYEAR=2004
DGENRE=Alt. Country-Rock, Indie Rock
TTITLE0=Strange Bird
TTITLE1=Valentine
TTITLE2=Terrible Sunrise
TTITLE3=Visit Me in Music City
TTITLE4=Your Favorite Hat
TTITLE5=Don't Follow Me (I'm Lost)
TTITLE6=Let's Rock and Roll
TTITLE7=Borrow Your Girl
TTITLE8=Things I Didn't Say
TTITLE9=Your Adorable Beast
TTITLE10=Beguiled
TTITLE11=Bashful Burnt
EXTD=
EXTT0=
EXTT1=
EXTT2=
EXTT3=
EXTT4=
EXTT5=
EXTT6=
EXTT7=
EXTT8=
EXTT9=
EXTT10=
EXTT11=
PLAYORDER=
